HIERARCHY
ROOT Hips
{
	OFFSET 0.000000 0.000000 0.000000
	CHANNELS 6 Xposition Yposition Zposition Zrotation Yrotation Xrotation 
	JOINT LHipJoint
	{
		OFFSET 0.000000 0.000000 0.000000
		CHANNELS 3 Zrotation Yrotation Xrotation
		JOINT LeftUpLeg
		{
			OFFSET 1.363060 -1.794630 0.839290
			CHANNELS 3 Zrotation Yrotation Xrotation
			JOINT LeftLeg
			{
				OFFSET 2.448110 -6.726130 0.000000
				CHANNELS 3 Zrotation Yrotation Xrotation
				JOINT LeftFoot
				{
					OFFSET 2.562200 -7.039590 0.000000
					CHANNELS 3 Zrotation Yrotation Xrotation
					JOINT LeftToeBase
					{
						OFFSET 0.157640 -0.433110 2.322550
						CHANNELS 3 Zrotation Yrotation Xrotation
						End Site
						{
							OFFSET 0.000000 0.000000 0.000000
						}
					}
				}
			}
		}
	}
	JOINT RHipJoint
	{
		OFFSET 0.000000 0.000000 0.000000
		CHANNELS 3 Zrotation Yrotation Xrotation
		JOINT RightUpLeg
		{
			OFFSET -1.305520 -1.794630 0.839290
			CHANNELS 3 Zrotation Yrotation Xrotation
			JOINT RightLeg
			{
				OFFSET -2.542530 -6.985550 0.000000
				CHANNELS 3 Zrotation Yrotation Xrotation
				JOINT RightFoot
				{
					OFFSET -2.568260 -7.056230 0.000000
					CHANNELS 3 Zrotation Yrotation Xrotation
					JOINT RightToeBase
					{
						OFFSET -0.164730 -0.452590 2.363150
						CHANNELS 3 Zrotation Yrotation Xrotation
						End Site
						{
							OFFSET 0.000000 0.000000 0.000000
						}
					}
				}
			}
		}
	}
}
MOTION
Frames: 22
Frame Time: 0.008333
2.776249 17.397398 0.552716 6.384339 -62.753452 0.705966 -9.805329 2.191325 5.921554 -3.889060 -7.889553 -14.596529 -1.773644 -0.780330 8.921885 0.178546 3.120801 4.530498 0.972000 0.000001 -57.841000 11.366054 -3.506837 -0.146784 -0.722146 -23.149971 -4.484869 1.401187 -0.013204 5.705403 -2.404287 -14.609342 4.195896 -3.722500 -0.000000 -67.728000
2.758732 17.394250 0.554434 6.076278 -62.564611 0.850793 -9.784991 2.242907 5.956038 -3.823689 -7.841870 -14.315830 -1.781816 -0.788233 8.580343 0.178582 3.121515 4.548928 0.973000 -0.000000 -57.720400 11.374799 -3.521611 -0.202166 -0.725534 -23.463660 -4.306396 1.421259 -0.029476 5.885772 -2.357407 -14.407822 4.296784 -3.684899 0.000000 -68.144500
2.742677 17.387773 0.559066 5.680020 -62.103285 1.075142 -9.740427 2.290646 6.051268 -3.698430 -8.222549 -14.042416 -1.778562 -0.785504 8.302083 0.196043 3.222997 4.468717 0.986800 0.000000 -57.468700 11.389290 -3.515035 -0.309701 -0.729274 -23.855781 -4.007069 1.428800 -0.043131 6.067168 -2.338553 -14.377003 4.367535 -3.684200 -0.000000 -68.515201
2.729270 17.379598 0.565527 5.240699 -61.442448 1.338699 -9.685232 2.335082 6.189859 -3.515389 -8.966255 -13.777118 -1.763059 -0.768929 8.085215 0.229293 3.411388 4.323095 1.011500 0.000000 -57.125000 11.397629 -3.484353 -0.466244 -0.724085 -24.266253 -3.593578 1.419289 -0.051838 6.229416 -2.350353 -14.537987 4.437420 -3.735000 0.000000 -68.828400
2.717437 17.370431 0.572778 4.774826 -60.653447 1.607632 -9.616320 2.390292 6.377606 -3.282015 -9.973126 -13.532669 -1.739578 -0.741127 7.936500 0.272284 3.644381 4.131321 1.039800 -0.000000 -56.744301 11.405342 -3.441988 -0.637635 -0.701776 -24.672409 -3.098496 1.392767 -0.051389 6.367214 -2.388835 -14.869883 4.506718 -3.833700 -0.000000 -69.080900
2.706069 17.360019 0.579126 4.337994 -59.795469 1.836677 -9.538208 2.452603 6.592683 -3.025044 -11.127147 -13.322176 -1.714025 -0.703659 7.866324 0.317711 3.869098 3.905219 1.061599 0.000000 -56.387900 11.413244 -3.387975 -0.818847 -0.677157 -25.085671 -2.562623 1.354269 -0.043846 6.494161 -2.446452 -15.316642 4.549033 -3.958900 0.000001 -69.278600
2.694360 17.348694 0.583192 3.968725 -58.927368 2.004455 -9.457634 2.515867 6.809899 -2.767089 -12.315468 -13.154343 -1.690895 -0.659069 7.872484 0.359275 4.046936 3.664237 1.070900 0.000000 -56.105100 11.420537 -3.323611 -1.004769 -0.655193 -25.497412 -2.022876 1.307841 -0.031201 6.610627 -2.518711 -15.840277 4.549717 -4.096601 0.000000 -69.419800
2.681482 17.336893 0.584143 3.680478 -58.104991 2.107261 -9.377354 2.577743 7.012757 -2.525938 -13.437912 -13.032893 -1.673693 -0.611473 7.942353 0.391880 4.152598 3.428896 1.065500 0.000000 -55.930500 11.430035 -3.253865 -1.183137 -0.634813 -25.894894 -1.513568 1.257279 -0.013927 6.708885 -2.601800 -16.409665 4.499721 -4.235300 0.000000 -69.503000
2.666550 17.325183 0.581587 3.473348 -57.376208 2.151876 -9.298086 2.637760 7.190560 -2.315673 -14.411511 -12.956894 -1.664674 -0.565525 8.057868 0.412037 4.172501 3.215843 1.045700 -0.000000 -55.878801 11.446071 -3.185446 -1.340016 -0.612199 -26.265754 -1.058030 1.206189 0.008828 6.767811 -2.692104 -16.999249 4.399766 -4.367101 -0.000000 -69.542100
2.649112 17.314040 0.575600 3.345303 -56.777439 2.152516 -9.220035 2.695605 7.340976 -2.143872 -15.196904 -12.924636 -1.663863 -0.525825 8.191179 0.420434 4.123106 3.039705 1.017000 -0.000001 -55.946200 11.471044 -3.122454 -1.463200 -0.579977 -26.591120 -0.689025 1.157674 0.036838 6.791200 -2.787475 -17.588742 4.238154 -4.481500 0.000000 -69.496700
2.628842 17.304002 0.566761 3.283077 -56.333157 2.124437 -9.144116 2.751503 7.461431 -2.014673 -15.760655 -12.927048 -1.670512 -0.495596 8.321802 0.417737 4.014960 2.906533 0.983000 0.000000 -56.109400 11.506571 -3.070876 -1.544645 -0.532832 -26.864605 -0.404955 1.114715 0.072022 6.741192 -2.884014 -18.160045 4.035041 -4.578001 -0.000000 -69.391500
2.605844 17.295367 0.555799 3.280025 -56.054715 2.084146 -9.072106 2.805056 7.556818 -1.925032 -16.113566 -12.961103 -1.682300 -0.477092 8.427095 0.408205 3.882669 2.817088 0.950200 0.000001 -56.336500 11.550183 -3.032422 -1.579462 -0.462263 -27.070992 -0.218889 1.079063 0.114276 6.619130 -2.979891 -18.701076 3.791646 -4.652800 -0.000000 -69.218500
2.580684 17.288250 0.543743 3.320692 -55.939579 2.044030 -9.005392 2.856124 7.632735 -1.869913 -16.278366 -13.017537 -1.696842 -0.471070 8.494105 0.395980 3.756674 2.764314 0.923400 -0.000000 -56.587900 11.599176 -3.009291 -1.568121 -0.367140 -27.213744 -0.122979 1.052953 0.163527 6.415857 -3.070176 -19.188712 3.522443 -4.703100 0.000000 -68.961000
2.554031 17.282550 0.531555 3.394213 -55.976728 2.015491 -8.946392 2.904168 7.695712 -1.840142 -16.293680 -13.091019 -1.711467 -0.476843 8.517320 0.385684 3.667719 2.734764 0.906700 -0.000000 -56.825500 11.648454 -3.001057 -1.514611 -0.245688 -27.292417 -0.107526 1.036951 0.219038 6.133374 -3.151670 -19.610211 3.243081 -4.730500 -0.000000 -68.658000
2.526813 17.278000 0.520175 3.485998 -56.145835 2.007260 -8.896701 2.948485 7.752061 -1.825605 -16.205567 -13.176377 -1.723765 -0.492634 8.500271 0.381376 3.640419 2.710955 0.902400 -0.000000 -57.015900 11.693335 -3.006404 -1.426176 -0.100512 -27.312513 -0.156098 1.031302 0.279309 5.782293 -3.220475 -19.949411 2.966612 -4.735100 0.000000 -68.311300
2.499922 17.274147 0.510431 3.582197 -56.422789 2.028160 -8.857497 2.988508 7.807654 -1.814811 -16.059888 -13.273094 -1.731570 -0.516127 8.455230 0.386260 3.690952 2.672409 0.911499 -0.000000 -57.133300 11.729678 -3.022882 -1.311531 0.064753 -27.283695 -0.259090 1.036231 0.341919 5.390012 -3.273108 -20.190652 2.698757 -4.715200 -0.000001 -67.934300
2.474526 17.270540 0.502895 3.667523 -56.781637 2.082806 -8.829664 3.023217 7.865245 -1.797976 -15.897724 -13.379375 -1.733097 -0.544172 8.398908 0.402453 3.825652 2.600813 0.932900 0.000000 -57.162301 11.754094 -3.046737 -1.181448 0.243865 -27.213473 -0.401184 1.050723 0.404188 4.983727 -3.307546 -20.327345 2.447789 -4.672800 -0.000000 -67.554600
2.451249 17.266750 0.497842 3.732950 -57.197752 2.173361 -8.813267 3.052419 7.925969 -1.767241 -15.750068 -13.495267 -1.727317 -0.573659 8.349138 0.430674 4.039739 2.481910 0.963800 0.000000 -57.098600 11.764938 -3.074124 -1.045777 0.429623 -27.109068 -0.564321 1.073085 0.464552 4.580098 -3.323360 -20.362675 2.223085 -4.612900 0.000000 -67.234000
2.430680 17.262402 0.495281 3.771885 -57.649530 2.299776 -8.807646 3.075973 7.989593 -1.718017 -15.637007 -13.622789 -1.713897 -0.601904 8.323041 0.470450 4.320759 2.307502 1.000100 -0.000000 -56.948000 11.761952 -3.101064 -0.912279 0.615550 -26.973603 -0.741639 1.101503 0.520640 4.210397 -3.321542 -20.302464 2.021109 -4.536500 -0.000000 -66.979300
2.413211 17.257302 0.494967 3.781478 -58.119934 2.458274 -8.811735 3.094111 8.054084 -1.649095 -15.564912 -13.763207 -1.693391 -0.626734 8.332705 0.519942 4.648604 2.077251 1.037100 0.000000 -56.725300 11.746150 -3.124080 -0.786702 0.795559 -26.808918 -0.926832 1.133796 0.570892 3.896361 -3.304504 -20.159937 1.837799 -4.446300 0.000001 -66.805001
2.398722 17.251385 0.496452 3.765756 -58.596587 2.643364 -8.823987 3.107768 8.117168 -1.562501 -15.528766 -13.918904 -1.667272 -0.646917 8.383179 0.576224 4.999114 1.798445 1.069900 0.000000 -56.451901 11.719679 -3.140724 -0.671241 0.965488 -26.614479 -1.117518 1.167784 0.614907 3.648637 -3.275621 -19.952836 1.668208 -4.345700 -0.000001 -66.721400
2.387049 17.244777 0.499043 3.733529 -59.072206 2.843406 -8.842556 3.117681 8.174378 -1.465990 -15.509788 -14.086976 -1.638012 -0.662177 8.471909 0.635256 5.345376 1.485877 1.094701 -0.000000 -56.153800 11.685746 -3.149440 -0.566561 1.119969 -26.390475 -1.316026 1.201354 0.651655 3.482724 -3.238786 -19.698639 1.501231 -4.235400 0.000000 -66.701701
